<svg width="98" height="40" viewBox="0 0 98 40" fill="none" xmlns="http://www.w3.org/2000/svg">
<path d="M47.3516 25.6797C47.3516 24.8984 47.4609 24.1016 47.6797 23.2891C47.9141 22.4766 48.2266 21.6875 48.6172 20.9219C49.0234 20.1562 49.5 19.4297 50.0469 18.7422C50.6094 18.0547 51.2266 17.4609 51.8984 16.9609C52.5859 16.4453 53.3125 16.0469 54.0781 15.7656C54.8594 15.4688 55.6641 15.3203 56.4922 15.3203C56.8516 15.3203 57.3125 15.3594 57.875 15.4375C58.4531 15.5156 59.0078 15.6484 59.5391 15.8359C60.0859 16.0234 60.5469 16.2734 60.9219 16.5859C61.3125 16.8828 61.5078 17.2422 61.5078 17.6641C61.5078 17.6953 61.5 17.7266 61.4844 17.7578C61.4844 17.7734 61.4844 17.7969 61.4844 17.8281C61.4688 17.8594 61.4609 17.8906 61.4609 17.9219C61.4297 17.9688 61.3516 18.0625 61.2266 18.2031C61.1016 18.3281 61.0156 18.4062 60.9688 18.4375C60.9375 18.4531 60.8984 18.4609 60.8516 18.4609C60.8047 18.4766 60.7578 18.4844 60.7109 18.4844C60.6484 18.4844 60.6016 18.4766 60.5703 18.4609C60.5391 18.4609 60.5078 18.4531 60.4766 18.4375C60.3984 18.3906 60.2109 18.2969 59.9141 18.1562C59.6172 18 59.2969 17.8359 58.9531 17.6641C58.6094 17.4922 58.2891 17.3359 57.9922 17.1953C57.6953 17.0391 57.5078 16.9453 57.4297 16.9141C57.3672 16.9141 57.3047 16.9062 57.2422 16.8906C57.1953 16.8906 57.1484 16.8906 57.1016 16.8906C57.0547 16.875 57.0156 16.8672 56.9844 16.8672C56.25 16.8672 55.5469 17 54.875 17.2656C54.2031 17.5312 53.5859 17.8984 53.0234 18.3672C52.4609 18.8359 51.9531 19.375 51.5 19.9844C51.0469 20.5938 50.6562 21.2422 50.3281 21.9297C50.0156 22.6016 49.7734 23.2969 49.6016 24.0156C49.4453 24.7188 49.3672 25.4062 49.3672 26.0781C49.3672 26.9531 49.5078 27.7344 49.7891 28.4219C50.0703 29.1094 50.4609 29.6875 50.9609 30.1562C51.4609 30.6094 52.0547 30.9531 52.7422 31.1875C53.4453 31.4219 54.2031 31.5391 55.0156 31.5391C55.4844 31.5391 56.0625 31.4766 56.75 31.3516C57.4375 31.2266 58.0938 31.0234 58.7188 30.7422C59.3594 30.4609 59.8984 30.1016 60.3359 29.6641C60.7734 29.2109 60.9922 28.6562 60.9922 28C60.9922 27.7344 60.9531 27.5312 60.875 27.3906C60.7969 27.2344 60.6875 27.125 60.5469 27.0625C60.4062 26.9844 60.2344 26.9453 60.0312 26.9453C59.8281 26.9297 59.6172 26.9219 59.3984 26.9219C59.0547 26.9219 58.7578 26.9766 58.5078 27.0859C58.2578 27.1953 58.0078 27.3203 57.7578 27.4609C57.5234 27.6016 57.2812 27.7266 57.0312 27.8359C56.7969 27.9453 56.5156 28 56.1875 28C55.7812 28 55.4609 27.9375 55.2266 27.8125C54.9922 27.6875 54.875 27.3984 54.875 26.9453C54.875 26.5078 55.0312 26.1562 55.3438 25.8906C55.6719 25.6094 56.0547 25.3984 56.4922 25.2578C56.9453 25.1172 57.4141 25.0234 57.8984 24.9766C58.3828 24.9297 58.7812 24.9062 59.0938 24.9062C59.6562 24.9062 60.1797 24.9531 60.6641 25.0469C61.1484 25.125 61.5625 25.2812 61.9062 25.5156C62.2656 25.7344 62.5391 26.0469 62.7266 26.4531C62.9141 26.8438 63.0078 27.3516 63.0078 27.9766C63.0078 28.9453 62.7422 29.7891 62.2109 30.5078C61.6797 31.2109 61.0078 31.7891 60.1953 32.2422C59.3984 32.6953 58.5312 33.0391 57.5938 33.2734C56.6719 33.4922 55.8125 33.6016 55.0156 33.6016C53.8906 33.6016 52.8516 33.4062 51.8984 33.0156C50.9609 32.625 50.1562 32.0781 49.4844 31.375C48.8125 30.6562 48.2891 29.8125 47.9141 28.8438C47.5391 27.8594 47.3516 26.8047 47.3516 25.6797ZM65.3984 25.2109C65.3984 25.1172 65.3984 24.9688 65.3984 24.7656C65.4141 24.5469 65.4219 24.3203 65.4219 24.0859C65.4375 23.8516 65.4453 23.625 65.4453 23.4062C65.4609 23.1875 65.4688 23.0312 65.4688 22.9375C65.6406 22.6875 65.8594 22.4844 66.125 22.3281C66.4062 22.1719 66.6875 22.0469 66.9688 21.9531C67.0156 22.7969 67.1484 23.6953 67.3672 24.6484C67.5859 25.6016 67.8203 26.5625 68.0703 27.5312C68.3203 28.4844 68.5391 29.4297 68.7266 30.3672C68.9297 31.3047 69.0312 32.1797 69.0312 32.9922C69.0312 33.6953 68.6719 34.0469 67.9531 34.0469C67.5156 34.0469 67.1484 33.8672 66.8516 33.5078C66.5547 33.1484 66.3125 32.6953 66.125 32.1484C65.9531 31.5859 65.8125 30.9688 65.7031 30.2969C65.5938 29.6094 65.5156 28.9375 65.4688 28.2812C65.4375 27.625 65.4141 27.0234 65.3984 26.4766C65.3984 25.9297 65.3984 25.5078 65.3984 25.2109ZM65.7266 16.4219C66.0234 16.5469 66.2734 16.75 66.4766 17.0312C66.6797 17.3125 66.7656 17.5703 66.7344 17.8047C66.7188 18.0234 66.5469 18.1797 66.2188 18.2734C65.8906 18.3516 65.3438 18.2578 64.5781 17.9922C64.5781 17.5703 64.6562 17.2031 64.8125 16.8906C64.9844 16.5781 65.2891 16.4219 65.7266 16.4219ZM69.9453 26.1016C69.9453 25.6953 70.0469 25.4062 70.25 25.2344C70.4531 25.0469 70.7812 24.9531 71.2344 24.9531H71.4688C71.5156 25.2031 71.5703 25.4922 71.6328 25.8203C71.6953 26.1484 71.7891 26.4844 71.9141 26.8281C72.0391 27.1719 72.1875 27.4922 72.3594 27.7891C72.5312 28.0703 72.7422 28.2969 72.9922 28.4688C73.0078 27.9219 73.1406 27.3984 73.3906 26.8984C73.6562 26.3828 73.9766 25.9297 74.3516 25.5391C74.7422 25.1328 75.1641 24.7969 75.6172 24.5312C76.0859 24.25 76.5469 24.0625 77 23.9688H77.5156C78.2656 23.9688 78.9062 24.1406 79.4375 24.4844C79.9688 24.8125 80.4062 25.25 80.75 25.7969C81.1094 26.3281 81.3828 26.9375 81.5703 27.625C81.7578 28.3125 81.8984 29.0156 81.9922 29.7344C82.1016 30.4375 82.1641 31.125 82.1797 31.7969C82.2109 32.4531 82.2266 33.0156 82.2266 33.4844H80.5156C80.4219 32.5469 80.3047 31.6484 80.1641 30.7891C80.1172 30.4453 80.0547 30.0859 79.9766 29.7109C79.8984 29.3203 79.8125 28.9609 79.7188 28.6328C79.625 28.2891 79.5234 27.9766 79.4141 27.6953C79.3047 27.3984 79.1797 27.1484 79.0391 26.9453C78.9766 26.8828 78.8906 26.7969 78.7812 26.6875C78.6875 26.5781 78.5859 26.4688 78.4766 26.3594C78.3672 26.25 78.2656 26.1562 78.1719 26.0781C78.0781 26 78.0234 25.9609 78.0078 25.9609C77.5391 25.8359 77.1328 25.9297 76.7891 26.2422C76.4453 26.5391 76.1406 26.9453 75.875 27.4609C75.6094 27.9766 75.3906 28.5625 75.2188 29.2188C75.0625 29.875 74.9297 30.5078 74.8203 31.1172C74.7109 31.7109 74.6328 32.2344 74.5859 32.6875C74.5391 33.125 74.5078 33.3906 74.4922 33.4844C74.1016 33.7656 73.7344 33.8516 73.3906 33.7422C73.0469 33.6172 72.7188 33.3672 72.4062 32.9922C72.1094 32.6172 71.8359 32.1484 71.5859 31.5859C71.3516 31.0234 71.1328 30.4297 70.9297 29.8047C70.7266 29.1641 70.5391 28.5234 70.3672 27.8828C70.2109 27.2422 70.0703 26.6484 69.9453 26.1016ZM93.5938 30.9766C93 31.3828 92.4844 31.75 92.0469 32.0781C91.625 32.3906 91.2109 32.6562 90.8047 32.875C90.3984 33.0938 89.9609 33.2578 89.4922 33.3672C89.0391 33.4766 88.4766 33.5312 87.8047 33.5312C86.3516 33.5312 85.2734 33.1484 84.5703 32.3828C83.8672 31.6016 83.5156 30.4453 83.5156 28.9141C83.5156 28.3203 83.5938 27.7031 83.75 27.0625C83.9062 26.4219 84.1328 25.7891 84.4297 25.1641C84.7422 24.5234 85.1094 23.9219 85.5312 23.3594C85.9531 22.7812 86.4297 22.2734 86.9609 21.8359C87.4922 21.3984 88.0547 21.0547 88.6484 20.8047C89.2578 20.5391 89.8984 20.4062 90.5703 20.4062C91.6953 20.5156 92.5781 20.7969 93.2188 21.25C93.8594 21.6875 94.3438 22.2578 94.6719 22.9609C95 23.6484 95.2266 24.4219 95.3516 25.2812C95.4766 26.125 95.5703 27 95.6328 27.9062C95.7109 28.8125 95.8047 29.7188 95.9141 30.625C96.0234 31.5312 96.25 32.3672 96.5938 33.1328C96.3906 33.6484 96.1953 34.0078 96.0078 34.2109C95.8359 34.4297 95.6406 34.4688 95.4219 34.3281C95.2031 34.1875 94.9453 33.8438 94.6484 33.2969C94.3672 32.75 94.0156 31.9766 93.5938 30.9766ZM85.5078 28.9609C85.5078 29.8516 85.6719 30.5078 86 30.9297C86.3438 31.3359 86.9453 31.5391 87.8047 31.5391C88.4453 31.5391 89.0547 31.4297 89.6328 31.2109C90.2266 30.9766 90.7422 30.6641 91.1797 30.2734C91.6172 29.8672 91.9688 29.3828 92.2344 28.8203C92.5 28.2578 92.6328 27.6328 92.6328 26.9453C92.6328 26.6641 92.6406 26.2734 92.6562 25.7734C92.6719 25.2578 92.6406 24.75 92.5625 24.25C92.4844 23.75 92.3359 23.3203 92.1172 22.9609C91.8984 22.5859 91.5703 22.3984 91.1328 22.3984C90.3203 22.3984 89.5703 22.6094 88.8828 23.0312C88.1953 23.4375 87.6016 23.9609 87.1016 24.6016C86.6016 25.2422 86.2109 25.9531 85.9297 26.7344C85.6484 27.5 85.5078 28.2422 85.5078 28.9609Z" fill="#FB5EE3"/>
<g clip-path="url(#clip0_28_28)">
<mask id="mask0_28_28" style="mask-type:alpha" maskUnits="userSpaceOnUse" x="0" y="0" width="40" height="48">
<rect y="0.486427" width="40" height="47.5136" fill="#D9D9D9"/>
</mask>
<g mask="url(#mask0_28_28)">
<path d="M10.7068 17.1704C11.4082 18.1391 11.557 19.5091 10.5465 20.1905C9.42002 20.95 8.72245 20.4497 7.32731 19.4491C5.93217 18.4485 5.34603 17.1005 6.18199 16.0152C7.21893 14.6689 9.91966 16.0834 10.7068 17.1704Z" fill="#FEBBFF"/>
<path d="M16.5311 9.74878C16.8893 11.1582 16.7734 12.1739 15.7628 12.8552C14.6364 13.6147 13.1517 12.9648 12.275 11.2911C11.3984 9.61734 11.0085 7.8744 12.8642 7.01122C14.4301 6.28286 16.2039 8.46084 16.5311 9.74878Z" fill="#FEBBFF"/>
<path d="M21.013 8.83037C21.0912 10.2796 21.5056 11.2199 22.6768 11.5911C23.9824 12.005 25.2098 10.9697 25.5492 9.1231C25.8885 7.27653 25.7411 5.49915 23.7063 5.18889C21.9893 4.92709 20.9416 7.50607 21.013 8.83037Z" fill="#FEBBFF"/>
<path d="M28.7525 14.6058C28.3703 15.7284 28.6371 17.0817 29.8083 17.4529C31.1139 17.8668 31.6324 17.1937 32.6693 15.8474C33.7063 14.5012 33.8648 13.0474 32.74 12.2407C31.3449 11.2401 29.1815 13.3459 28.7525 14.6058Z" fill="#FEBBFF"/>
<path d="M13.4061 29.9746C14.5191 33.0713 21.7258 31.4476 23.063 31.2575C24.8871 30.9983 30.3487 29.2045 30.9485 25.9407C31.5483 22.677 26.8415 14.2975 18.3027 16.3485C12.1908 17.8166 12.9557 28.7218 13.4061 29.9746Z" fill="#FEBBFF"/>
<path fill-rule="evenodd" clip-rule="evenodd" d="M13.4061 48.861L7.82095 24.478C1.20342 21.8218 -2.23307 6.35979 11.4497 14.6058C1.59414 7.01476 14.6424 -4.44485 18.3471 7.617C18.8986 -5.04975 31.8076 1.48879 27.8577 12.2407C32.2553 4.42239 40.7596 9.09287 34.3776 20.1905L42.5552 41.2077L13.4061 48.861ZM10.5465 20.1905C11.557 19.5091 11.4082 18.1391 10.7068 17.1704C9.91966 16.0834 7.21893 14.6689 6.18199 16.0152C5.34603 17.1005 5.93217 18.4485 7.32731 19.4491C8.72245 20.4497 9.42002 20.95 10.5465 20.1905ZM15.7628 12.8552C16.7734 12.1739 16.8893 11.1582 16.5311 9.74878C16.2039 8.46084 14.4301 6.28286 12.8642 7.01122C11.0085 7.8744 11.3984 9.61734 12.275 11.2911C13.1517 12.9648 14.6364 13.6147 15.7628 12.8552ZM22.6768 11.5911C21.5056 11.2199 21.0912 10.2796 21.013 8.83037C20.9416 7.50607 21.9893 4.92709 23.7063 5.18889C25.7411 5.49915 25.8885 7.27653 25.5492 9.1231C25.2098 10.9697 23.9824 12.005 22.6768 11.5911ZM29.8083 17.4529C28.6371 17.0817 28.3703 15.7284 28.7525 14.6058C29.1815 13.3459 31.3449 11.2401 32.74 12.2407C33.8648 13.0474 33.7063 14.5012 32.6693 15.8474C31.6324 17.1937 31.1139 17.8668 29.8083 17.4529ZM23.063 31.2575C21.7258 31.4476 14.5191 33.0713 13.4061 29.9746C12.9557 28.7218 12.1908 17.8166 18.3027 16.3485C26.8415 14.2975 31.5483 22.677 30.9485 25.9407C30.3487 29.2045 24.8871 30.9983 23.063 31.2575Z" fill="#F8D8A0"/>
<path d="M13.4061 48.861L13.162 48.9143C13.1772 48.9807 13.2189 49.0384 13.2774 49.0739C13.336 49.1094 13.4062 49.1197 13.472 49.1024L13.4061 48.861ZM7.82095 24.478L8.06501 24.4247C8.04655 24.3442 7.98947 24.2775 7.91248 24.2466L7.82095 24.478ZM11.4497 14.6058L11.3217 14.8191C11.4357 14.8878 11.5829 14.8564 11.6571 14.7475C11.7314 14.6386 11.707 14.49 11.6015 14.4088L11.4497 14.6058ZM18.3471 7.617L18.1077 7.68794C18.1435 7.80444 18.258 7.87915 18.3789 7.86491C18.4997 7.85067 18.5919 7.75161 18.5972 7.63028L18.3471 7.617ZM27.8577 12.2407L27.6225 12.1528C27.5778 12.2747 27.6348 12.4113 27.7535 12.4667C27.8723 12.522 28.0128 12.4775 28.0764 12.3645L27.8577 12.2407ZM34.3776 20.1905L34.1601 20.0647C34.1228 20.1297 34.117 20.2083 34.1443 20.2787L34.3776 20.1905ZM42.5552 41.2077L42.6212 41.4492C42.6896 41.4312 42.7469 41.3851 42.7788 41.3222C42.8107 41.2593 42.8142 41.1856 42.7885 41.1195L42.5552 41.2077ZM16.5311 9.74878L16.7738 9.68972L16.5311 9.74878ZM12.8642 7.01122L12.7565 6.78481L12.7565 6.78481L12.8642 7.01122ZM21.013 8.83037L20.763 8.84133L21.013 8.83037ZM23.7063 5.18889L23.7417 4.94214L23.7417 4.94214L23.7063 5.18889ZM13.4061 29.9746L13.1705 30.0568L13.4061 29.9746ZM18.3027 16.3485L18.3636 16.5912L18.3027 16.3485ZM10.5043 17.3153C10.8292 17.7639 11.0195 18.2978 11.0182 18.7851C11.017 19.2649 10.8321 19.6952 10.4049 19.9832L10.6882 20.3977C11.2715 20.0044 11.5174 19.409 11.519 18.7913C11.5206 18.1811 11.2858 17.5457 10.9093 17.0256L10.5043 17.3153ZM10.4049 19.9832C10.143 20.1598 9.92012 20.2536 9.71757 20.2901C9.51752 20.3262 9.32274 20.309 9.11138 20.242C8.66918 20.1018 8.18333 19.757 7.47219 19.2469L7.18243 19.6512C7.86643 20.1418 8.42693 20.5474 8.96393 20.7176C9.24216 20.8059 9.52019 20.8339 9.81135 20.7814C10.1 20.7294 10.3868 20.6009 10.6882 20.3977L10.4049 19.9832ZM7.47219 19.2469C6.80095 18.7655 6.34702 18.216 6.15339 17.6812C5.96401 17.1582 6.01811 16.6397 6.38112 16.1684L5.98286 15.8619C5.50991 16.4759 5.4391 17.1742 5.68259 17.8466C5.92182 18.5073 6.45853 19.132 7.18243 19.6512L7.47219 19.2469ZM6.38112 16.1684C6.79368 15.6328 7.57349 15.6015 8.45602 15.9154C9.32323 16.2238 10.1477 16.8228 10.5043 17.3153L10.9093 17.0256C10.4788 16.4311 9.55929 15.7793 8.62012 15.4453C7.69627 15.1167 6.60725 15.0513 5.98286 15.8619L6.38112 16.1684ZM13.6501 48.8077L8.06501 24.4247L7.57689 24.5313L13.162 48.9143L13.6501 48.8077ZM7.91248 24.2466C6.32538 23.6096 4.90694 22.1926 3.88529 20.5266C2.86382 18.8609 2.2615 16.9826 2.27307 15.4579C2.27885 14.6969 2.43726 14.0401 2.75546 13.5406C3.06984 13.0472 3.54959 12.6916 4.2362 12.5397C5.63399 12.2305 7.91027 12.7631 11.3217 14.8191L11.5776 14.3925C8.1477 12.3254 5.72251 11.6985 4.12317 12.0523C3.31122 12.2319 2.71849 12.6634 2.33202 13.27C1.94938 13.8706 1.77859 14.6269 1.77235 15.4492C1.75989 17.0913 2.40231 19.0612 3.45877 20.784C4.51506 22.5065 6.00776 24.0184 7.72942 24.7095L7.91248 24.2466ZM11.6015 14.4088C9.18606 12.5483 8.19887 10.4729 8.09864 8.60423C7.99806 6.72909 8.78835 5.03175 9.98456 3.92534C11.1819 2.81789 12.7619 2.32084 14.2469 2.79078C15.7296 3.25998 17.1957 4.71854 18.1077 7.68794L18.5864 7.54607C17.6461 4.48454 16.092 2.85235 14.3941 2.31505C12.6986 1.7785 10.938 2.35918 9.64207 3.55778C8.34506 4.75742 7.48965 6.59443 7.59861 8.626C7.70792 10.6641 8.78551 12.8677 11.2978 14.8027L11.6015 14.4088ZM18.5972 7.63028C18.7336 4.49851 19.6319 2.61495 20.7809 1.6775C21.9184 0.749533 23.3515 0.708386 24.6803 1.36997C27.3477 2.698 29.5617 6.87436 27.6225 12.1528L28.0929 12.3286C30.1037 6.85515 27.838 2.38628 24.9005 0.923743C23.4268 0.190046 21.7762 0.217285 20.4615 1.28987C19.1585 2.35297 18.2363 4.40213 18.0969 7.60373L18.5972 7.63028ZM28.0764 12.3645C29.1554 10.4462 30.4714 9.32063 31.7185 8.85797C32.9611 8.39699 34.1391 8.58939 34.9998 9.31237C35.865 10.0391 36.4499 11.3369 36.4194 13.1604C36.3888 14.9834 35.7413 17.3152 34.1601 20.0647L34.5952 20.3162C36.2049 17.5169 36.8877 15.1033 36.92 13.1737C36.9524 11.2447 36.3331 9.78265 35.3202 8.93187C34.3029 8.07732 32.9292 7.87443 31.5398 8.38985C30.155 8.90358 28.7589 10.1261 27.6391 12.117L28.0764 12.3645ZM34.1443 20.2787L42.3219 41.296L42.7885 41.1195L34.611 20.1022L34.1443 20.2787ZM42.4892 40.9663L13.3401 48.6196L13.472 49.1024L42.6212 41.4492L42.4892 40.9663ZM16.2885 9.80785C16.4636 10.4971 16.5142 11.0597 16.4154 11.5205C16.319 11.9697 16.0768 12.3408 15.6212 12.648L15.9045 13.0624C16.4594 12.6883 16.7804 12.2109 16.9051 11.6295C17.0273 11.0598 16.9568 10.4099 16.7738 9.68972L16.2885 9.80785ZM15.6212 12.648C15.1358 12.9752 14.5755 13.0028 14.0255 12.7579C13.4684 12.5098 12.9156 11.9769 12.4967 11.1772L12.0533 11.4049C12.5112 12.279 13.139 12.9079 13.825 13.2134C14.5181 13.522 15.2634 13.4947 15.9045 13.0624L15.6212 12.648ZM12.4967 11.1772C12.0633 10.3498 11.7725 9.54373 11.7952 8.85787C11.8064 8.52066 11.8932 8.21651 12.0739 7.94988C12.255 7.68268 12.5404 7.43836 12.9719 7.23763L12.7565 6.78481C12.2602 7.01567 11.8985 7.3129 11.6581 7.66758C11.4174 8.02283 11.3085 8.42087 11.2948 8.8365C11.2676 9.65634 11.6101 10.5586 12.0533 11.4049L12.4967 11.1772ZM12.9719 7.23763C13.6155 6.93826 14.3403 7.2166 14.995 7.80812C15.6439 8.39437 16.1389 9.21907 16.2885 9.80785L16.7738 9.68972C16.5961 8.99055 16.0406 8.08229 15.3293 7.43965C14.6238 6.80229 13.6788 6.35581 12.7565 6.78481L12.9719 7.23763ZM20.763 8.84133C20.8029 9.58185 20.9296 10.2238 21.2168 10.7353C21.5099 11.2573 21.9599 11.6251 22.6031 11.829L22.7505 11.3533C22.2225 11.1859 21.8796 10.898 21.6532 10.4947C21.4209 10.081 21.3012 9.52815 21.263 8.81942L20.763 8.84133ZM22.6031 11.829C23.3461 12.0645 24.0679 11.8833 24.6393 11.395C25.2049 10.9117 25.6182 10.1347 25.7955 9.17043L25.3029 9.07578C25.1407 9.95804 24.7706 10.6221 24.3113 11.0146C23.8578 11.4021 23.313 11.5316 22.7505 11.3533L22.6031 11.829ZM25.7955 9.17043C25.967 8.23677 26.0254 7.27751 25.7545 6.50003C25.6171 6.10588 25.3939 5.75503 25.0573 5.48184C24.7212 5.20909 24.286 5.02512 23.7417 4.94214L23.6708 5.43564C24.144 5.50779 24.4903 5.66235 24.7435 5.86782C24.9962 6.07286 25.1702 6.33994 25.2816 6.65973C25.5083 7.31015 25.4707 8.16286 25.3029 9.07578L25.7955 9.17043ZM23.7417 4.94214C22.7305 4.78794 21.959 5.47836 21.4739 6.28493C20.9848 7.09816 20.7242 8.12242 20.763 8.84133L21.263 8.81942C21.2304 8.21402 21.4579 7.28664 21.9041 6.54476C22.3542 5.79622 22.9651 5.32804 23.6708 5.43564L23.7417 4.94214ZM28.5154 14.5234C28.3102 15.1261 28.2753 15.7999 28.4591 16.3838C28.6452 16.9748 29.0586 17.4765 29.7346 17.6908L29.882 17.2151C29.3869 17.0582 29.0813 16.6976 28.9367 16.2385C28.7899 15.7722 28.8127 15.2081 28.9897 14.6881L28.5154 14.5234ZM29.7346 17.6908C30.0839 17.8015 30.3969 17.8448 30.6888 17.8143C30.9833 17.7835 31.2411 17.6793 31.4812 17.5175C31.9445 17.2051 32.3601 16.6607 32.8684 16.0007L32.4702 15.6942C31.9416 16.3804 31.5794 16.8458 31.1979 17.103C31.0155 17.226 30.8342 17.2966 30.6318 17.3177C30.427 17.3391 30.1855 17.3113 29.882 17.2151L29.7346 17.6908ZM32.8684 16.0007C33.4065 15.3022 33.7337 14.5546 33.7654 13.8555C33.7977 13.1438 33.5212 12.4949 32.8849 12.0386L32.5952 12.4429C33.0836 12.7932 33.2903 13.2745 33.2652 13.828C33.2396 14.394 32.9691 15.0465 32.4702 15.6942L32.8684 16.0007ZM32.8849 12.0386C32.0448 11.4361 31.0216 11.8017 30.2352 12.3733C29.4357 12.9545 28.75 13.8344 28.5154 14.5234L28.9897 14.6881C29.184 14.1173 29.7945 13.3144 30.5327 12.7778C31.284 12.2317 32.0401 12.0448 32.5952 12.4429L32.8849 12.0386ZM13.1705 30.0568C13.4847 30.9311 14.2254 31.4512 15.1203 31.7452C16.0127 32.0385 17.0925 32.1197 18.158 32.0982C20.2861 32.0552 22.4562 31.5963 23.1008 31.5047L23.0253 31.0104C22.3327 31.1088 20.2308 31.5568 18.143 31.599C17.1005 31.6201 16.0863 31.5385 15.2727 31.2712C14.4615 31.0047 13.8839 30.5664 13.6417 29.8925L13.1705 30.0568ZM23.1008 31.5047C24.0423 31.3709 25.8914 30.8483 27.5845 29.9463C29.2643 29.0514 30.873 27.739 31.1948 25.9881L30.7022 25.8934C30.4242 27.4063 29.0022 28.6226 27.3452 29.5054C25.7016 30.381 23.9078 30.885 23.0253 31.0104L23.1008 31.5047ZM31.1948 25.9881C31.3566 25.1073 31.158 23.9204 30.6585 22.6853C30.1564 21.4437 29.3399 20.1267 28.2321 18.9794C26.0117 16.6797 22.6119 15.0561 18.2418 16.1058L18.3636 16.5912C22.5323 15.5899 25.7554 17.1306 27.873 19.3238C28.9343 20.4229 29.7157 21.6846 30.1943 22.868C30.6755 24.0578 30.8402 25.1423 30.7022 25.8934L31.1948 25.9881ZM18.2418 16.1058C15.0267 16.8781 13.6652 20.1196 13.1466 23.1986C12.8851 24.7515 12.8315 26.295 12.8715 27.529C12.8914 28.1464 12.9349 28.6884 12.988 29.1178C13.0403 29.5401 13.1039 29.8717 13.1705 30.0568L13.6417 29.8925C13.5956 29.7643 13.5369 29.4811 13.485 29.0615C13.4339 28.6489 13.3915 28.122 13.3719 27.5178C13.3328 26.3089 13.3856 24.7994 13.6405 23.286C14.1548 20.2321 15.4669 17.287 18.3636 16.5912L18.2418 16.1058Z" fill="black"/>
</g>
</g>
<defs>
<clipPath id="clip0_28_28">
<rect width="40" height="40" fill="white"/>
</clipPath>
</defs>
</svg>
