<svg width="32" height="32" viewBox="0 0 32 32" fill="none" xmlns="http://www.w3.org/2000/svg">
<g clip-path="url(#clip0_28_26)">
<mask id="mask0_28_26" style="mask-type:alpha" maskUnits="userSpaceOnUse" x="0" y="0" width="32" height="40">
<rect y="0.48642" width="32" height="39.5136" fill="#D9D9D9"/>
</mask>
<g mask="url(#mask0_28_26)">
<path d="M8.7422 14.2816C9.31285 15.0983 9.43393 16.2534 8.61181 16.8278C7.69534 17.4682 7.12782 17.0464 5.99278 16.2028C4.85775 15.3591 4.38088 14.2227 5.06099 13.3076C5.90461 12.1726 8.10183 13.3652 8.7422 14.2816Z" fill="#FEBBFF"/>
<path d="M13.4807 8.02442C13.7721 9.21274 13.6778 10.069 12.8556 10.6434C11.9392 11.2838 10.7313 10.7359 10.0181 9.32473C9.30485 7.9136 8.98769 6.44412 10.4974 5.71638C11.7714 5.10229 13.2144 6.93855 13.4807 8.02442Z" fill="#FEBBFF"/>
<path d="M17.127 7.25011C17.1906 8.47198 17.5278 9.26469 18.4806 9.57772C19.5428 9.92667 20.5414 9.05375 20.8175 7.49691C21.0936 5.94006 20.9736 4.44155 19.3181 4.17997C17.9213 3.95925 17.0689 6.13358 17.127 7.25011Z" fill="#FEBBFF"/>
<path d="M23.4236 12.1193C23.1126 13.0659 23.3297 14.2068 24.2825 14.5198C25.3447 14.8688 25.7665 14.3012 26.6102 13.1662C27.4538 12.0312 27.5827 10.8055 26.6677 10.1254C25.5327 9.28176 23.7726 11.0572 23.4236 12.1193Z" fill="#FEBBFF"/>
<path d="M10.9383 25.0769C11.8438 27.6876 17.7069 26.3187 18.7948 26.1585C20.2788 25.9399 24.7221 24.4276 25.2101 21.6759C25.6981 18.9242 21.8689 11.8594 14.922 13.5887C9.94958 14.8264 10.5719 24.0206 10.9383 25.0769Z" fill="#FEBBFF"/>
<path fill-rule="evenodd" clip-rule="evenodd" d="M10.9382 41L6.39439 20.4427C1.0106 18.2032 -1.78521 5.16715 9.34659 12.1193C1.32848 5.71936 11.9441 -3.94226 14.9581 6.22711C15.4068 -4.45224 25.9091 1.06041 22.6956 10.1254C26.2734 3.53373 33.1921 7.47142 28 16.8278L34.6529 34.5475L10.9382 41ZM8.61181 16.8278C9.43393 16.2534 9.31285 15.0983 8.7422 14.2816C8.10183 13.3652 5.90461 12.1726 5.06099 13.3076C4.38088 14.2227 4.85775 15.3591 5.99278 16.2028C7.12782 17.0464 7.69534 17.4682 8.61181 16.8278ZM12.8556 10.6434C13.6778 10.069 13.7721 9.21274 13.4807 8.02442C13.2144 6.93855 11.7714 5.10229 10.4974 5.71638C8.98769 6.44412 9.30485 7.9136 10.0181 9.32473C10.7313 10.7359 11.9392 11.2838 12.8556 10.6434ZM18.4806 9.57772C17.5278 9.26469 17.1906 8.47198 17.127 7.25011C17.0689 6.13358 17.9213 3.95925 19.3181 4.17997C20.9736 4.44155 21.0936 5.94006 20.8175 7.49691C20.5414 9.05375 19.5428 9.92667 18.4806 9.57772ZM24.2825 14.5198C23.3297 14.2068 23.1126 13.0659 23.4236 12.1193C23.7726 11.0572 25.5327 9.28176 26.6677 10.1254C27.5827 10.8055 27.4538 12.0312 26.6102 13.1662C25.7665 14.3012 25.3447 14.8688 24.2825 14.5198ZM18.7948 26.1585C17.7069 26.3187 11.8438 27.6876 10.9383 25.0769C10.5719 24.0206 9.94958 14.8264 14.922 13.5887C21.8689 11.8594 25.6981 18.9242 25.2101 21.6759C24.7221 24.4276 20.2788 25.9399 18.7948 26.1585Z" fill="#F8D8A0"/>
<path d="M10.9382 41L10.6941 41.0539C10.7089 41.1207 10.7504 41.1785 10.8089 41.2139C10.8674 41.2493 10.9379 41.2592 11.0039 41.2412L10.9382 41ZM6.39439 20.4427L6.6385 20.3887C6.62091 20.3092 6.56565 20.2431 6.49041 20.2118L6.39439 20.4427ZM9.34659 12.1193L9.21416 12.3314C9.32652 12.4016 9.47411 12.3719 9.55065 12.2638C9.62718 12.1557 9.60608 12.0066 9.50255 11.924L9.34659 12.1193ZM14.9581 6.22711L14.7184 6.29815C14.7531 6.41533 14.8675 6.49023 14.9888 6.47522C15.1101 6.46022 15.2027 6.35972 15.2079 6.23761L14.9581 6.22711ZM22.6956 10.1254L22.46 10.0418C22.4164 10.1648 22.4747 10.3007 22.5939 10.3538C22.7131 10.4068 22.8531 10.3593 22.9154 10.2446L22.6956 10.1254ZM28 16.8278L27.7814 16.7065C27.7458 16.7706 27.7402 16.8471 27.7659 16.9157L28 16.8278ZM34.6529 34.5475L34.7186 34.7887C34.7865 34.7703 34.8434 34.724 34.8755 34.6614C34.9075 34.5988 34.9117 34.5255 34.887 34.4596L34.6529 34.5475ZM13.4807 8.02442L13.7235 7.96488L13.4807 8.02442ZM10.4974 5.71638L10.3889 5.49117L10.4974 5.71638ZM17.127 7.25011L16.8773 7.2631L17.127 7.25011ZM19.3181 4.17997L19.3572 3.93303L19.3181 4.17997ZM10.9383 25.0769L10.7021 25.1588L10.9383 25.0769ZM14.922 13.5887L14.9823 13.8313L14.922 13.5887ZM8.53727 14.4248C8.798 14.798 8.95031 15.2416 8.94929 15.6449C8.9483 16.0419 8.80097 16.3906 8.46862 16.6229L8.755 17.0327C9.24476 16.6905 9.44796 16.1745 9.44929 15.6462C9.45061 15.1242 9.25705 14.582 8.94713 14.1384L8.53727 14.4248ZM8.46862 16.6229C8.25946 16.769 8.08495 16.8442 7.92966 16.8732C7.77704 16.9017 7.62755 16.8886 7.46229 16.8343C7.11162 16.7191 6.72315 16.4341 6.14192 16.0021L5.84365 16.4034C6.39745 16.815 6.86027 17.1628 7.30623 17.3093C7.53929 17.3859 7.77446 17.4108 8.02147 17.3647C8.26582 17.319 8.50593 17.2068 8.755 17.0327L8.46862 16.6229ZM6.14192 16.0021C5.60062 15.5998 5.2369 15.1422 5.08222 14.6995C4.93113 14.2671 4.97518 13.8422 5.26164 13.4568L4.86035 13.1585C4.4667 13.6881 4.40913 14.289 4.6102 14.8644C4.80769 15.4296 5.24991 15.9621 5.84365 16.4034L6.14192 16.0021ZM5.26164 13.4568C5.57646 13.0332 6.17769 12.9969 6.89136 13.2599C7.58941 13.5172 8.25246 14.0172 8.53727 14.4248L8.94713 14.1384C8.59157 13.6296 7.83582 13.0751 7.06427 12.7907C6.30834 12.5121 5.38915 12.447 4.86035 13.1585L5.26164 13.4568ZM11.1824 40.946L6.6385 20.3887L6.15028 20.4966L10.6941 41.0539L11.1824 40.946ZM6.49041 20.2118C5.21167 19.6799 4.06334 18.4937 3.23413 17.0924C2.40545 15.692 1.91778 14.1142 1.92714 12.836C1.93181 12.1979 2.06008 11.6512 2.31401 11.2382C2.5639 10.8317 2.94348 10.5405 3.48785 10.4157C4.60291 10.1601 6.4393 10.5984 9.21416 12.3314L9.47902 11.9073C6.68798 10.1642 4.69942 9.62497 3.37613 9.92831C2.70131 10.083 2.20836 10.4553 1.88807 10.9763C1.57182 11.4908 1.43225 12.1355 1.42715 12.8323C1.41696 14.224 1.94197 15.8906 2.80383 17.3471C3.66515 18.8026 4.88522 20.0857 6.29838 20.6735L6.49041 20.2118ZM9.50255 11.924C7.54556 10.3619 6.74759 8.62113 6.66657 7.0557C6.58523 5.48406 7.22457 4.06395 8.1883 3.1402C9.15301 2.21552 10.4188 1.80634 11.6043 2.19512C12.7904 2.58409 13.9776 3.79878 14.7184 6.29815L15.1978 6.15607C14.4315 3.57076 13.1616 2.17964 11.7601 1.72002C10.3581 1.26022 8.906 1.75969 7.84232 2.77924C6.77766 3.79972 6.07811 5.35942 6.16724 7.08154C6.25669 8.80988 7.13856 10.6768 9.19063 12.3147L9.50255 11.924ZM15.2079 6.23761C15.3187 3.60032 16.0486 2.02572 16.9697 1.24701C17.8765 0.480351 19.0186 0.443825 20.0855 0.994293C22.2331 2.10232 24.0335 5.60302 22.46 10.0418L22.9313 10.2089C24.5712 5.58277 22.7272 1.79466 20.3148 0.549951C19.1017 -0.0759439 17.735 -0.054814 16.6468 0.865191C15.5729 1.77315 14.8218 3.51423 14.7083 6.21662L15.2079 6.23761ZM22.9154 10.2446C23.7903 8.6327 24.8537 7.69381 25.8536 7.30939C26.8474 6.92733 27.7856 7.08683 28.4724 7.68464C29.1652 8.28774 29.6395 9.37075 29.6148 10.9023C29.59 12.4324 29.0654 14.3926 27.7814 16.7065L28.2186 16.9491C29.5306 14.5848 30.0882 12.5441 30.1147 10.9104C30.1411 9.27819 29.6357 8.03443 28.8006 7.30751C27.9595 6.57531 26.8217 6.40154 25.6742 6.84269C24.5329 7.28147 23.3899 8.32223 22.4759 10.0061L22.9154 10.2446ZM27.7659 16.9157L34.4189 34.6354L34.887 34.4596L28.234 16.7399L27.7659 16.9157ZM34.5873 34.3063L10.8726 40.7588L11.0039 41.2412L34.7186 34.7887L34.5873 34.3063ZM13.2379 8.08396C13.3799 8.66325 13.4199 9.13212 13.3409 9.51346C13.2644 9.88325 13.073 10.1866 12.7124 10.4385L12.9988 10.8484C13.4604 10.5259 13.7272 10.1138 13.8305 9.61481C13.9314 9.12733 13.8728 8.57391 13.7235 7.96488L13.2379 8.08396ZM12.7124 10.4385C12.3342 10.7028 11.8986 10.7263 11.4654 10.5264C11.024 10.3227 10.5797 9.8817 10.2412 9.21196L9.79496 9.4375C10.1697 10.1789 10.686 10.7174 11.2559 10.9804C11.834 11.2472 12.4606 11.2245 12.9988 10.8484L12.7124 10.4385ZM10.2412 9.21196C9.8893 8.51573 9.65581 7.84217 9.67401 7.27226C9.68294 6.99268 9.75231 6.74308 9.89454 6.52558C10.0369 6.30794 10.262 6.10739 10.606 5.94158L10.3889 5.49117C9.97799 5.68923 9.67661 5.94528 9.47607 6.25193C9.27545 6.55874 9.18561 6.90116 9.17427 7.2563C9.15192 7.95586 9.43363 8.7226 9.79496 9.4375L10.2412 9.21196ZM10.606 5.94158C11.0986 5.70411 11.6655 5.91869 12.1961 6.41541C12.719 6.905 13.1178 7.59437 13.2379 8.08396L13.7235 7.96488C13.5773 7.3686 13.1215 6.59691 12.5378 6.05042C11.9617 5.51107 11.1702 5.11456 10.3889 5.49117L10.606 5.94158ZM16.8773 7.2631C16.9099 7.88932 17.0133 8.43614 17.2505 8.87383C17.4933 9.32189 17.8676 9.63947 18.4026 9.81523L18.5586 9.3402C18.1408 9.20293 17.87 8.96764 17.6901 8.63562C17.5046 8.29323 17.4076 7.83276 17.3766 7.23711L16.8773 7.2631ZM18.4026 9.81523C19.0264 10.0202 19.6329 9.86125 20.1095 9.43915C20.5794 9.02302 20.9186 8.35851 21.0636 7.54056L20.5713 7.45325C20.4403 8.19215 20.142 8.74252 19.7781 9.06483C19.4208 9.38115 18.997 9.48422 18.5586 9.3402L18.4026 9.81523ZM21.0636 7.54056C21.2035 6.75184 21.2522 5.93644 21.0291 5.27303C20.9158 4.93624 20.7311 4.63426 20.4505 4.39832C20.1701 4.1625 19.8077 4.00422 19.3572 3.93303L19.2791 4.42691C19.6563 4.48651 19.9297 4.61363 20.1287 4.781C20.3276 4.94826 20.466 5.16726 20.5552 5.4324C20.7369 5.97285 20.7075 6.68513 20.5713 7.45325L21.0636 7.54056ZM19.3572 3.93303C18.5005 3.79767 17.8568 4.40556 17.4607 5.08809C17.0594 5.77965 16.8454 6.64998 16.8773 7.2631L17.3766 7.23711C17.3504 6.7337 17.5336 5.95861 17.8932 5.33905C18.258 4.71047 18.7389 4.34155 19.2791 4.42691L19.3572 3.93303ZM23.1861 12.0413C23.0172 12.5554 22.9882 13.1304 23.14 13.6298C23.2936 14.1353 23.6369 14.5708 24.2045 14.7573L24.3606 14.2823C23.9754 14.1558 23.7338 13.8643 23.6184 13.4845C23.5011 13.0986 23.519 12.6298 23.6611 12.1974L23.1861 12.0413ZM24.2045 14.7573C24.4932 14.8522 24.7555 14.8904 25.0026 14.8637C25.2524 14.8367 25.4704 14.7449 25.6715 14.6044C26.0563 14.3356 26.3992 13.8691 26.8108 13.3153L26.4095 13.0171C25.9775 13.5983 25.6877 13.9832 25.3851 14.1946C25.2425 14.2942 25.1032 14.3499 24.9488 14.3666C24.7918 14.3836 24.603 14.3619 24.3606 14.2823L24.2045 14.7573ZM26.8108 13.3153C27.2521 12.7216 27.522 12.0843 27.5482 11.4861C27.5748 10.8771 27.3465 10.3184 26.8168 9.92473L26.5186 10.326C26.904 10.6125 27.0687 11.0067 27.0487 11.4643C27.0282 11.9328 26.8118 12.4758 26.4095 13.0171L26.8108 13.3153ZM26.8168 9.92473C26.1054 9.39592 25.244 9.72328 24.6005 10.208C23.9437 10.7027 23.3799 11.4516 23.1861 12.0413L23.6611 12.1974C23.8163 11.725 24.307 11.055 24.9013 10.6074C25.5088 10.1498 26.095 10.0112 26.5186 10.326L26.8168 9.92473ZM10.7021 25.1588C10.9623 25.9092 11.5766 26.3553 12.3143 26.6065C13.0484 26.8564 13.9338 26.925 14.8034 26.9068C16.5392 26.8704 18.3121 26.4823 18.8313 26.4058L18.7584 25.9112C18.1896 25.9949 16.4871 26.3714 14.7929 26.4069C13.9475 26.4246 13.1293 26.3558 12.4755 26.1332C11.8252 25.9118 11.3669 25.5499 11.1744 24.9949L10.7021 25.1588ZM18.8313 26.4058C19.6038 26.292 21.1141 25.8493 22.4968 25.086C23.8678 24.329 25.1914 23.2134 25.4563 21.7195L24.964 21.6322C24.7409 22.89 23.5988 23.9064 22.2552 24.6482C20.9232 25.3836 19.4698 25.8064 18.7584 25.9112L18.8313 26.4058ZM25.4563 21.7195C25.5895 20.9686 25.4258 19.9616 25.0183 18.9173C24.6084 17.8669 23.9418 16.7526 23.0371 15.7815C21.2232 13.8347 18.44 12.4553 14.8616 13.3461L14.9823 13.8313C18.3509 12.9928 20.9558 14.2812 22.6712 16.1224C23.5311 17.0453 24.1646 18.105 24.5525 19.0991C24.9428 20.0994 25.0748 21.0074 24.964 21.6322L25.4563 21.7195ZM14.8616 13.3461C13.5391 13.6753 12.5965 14.534 11.9362 15.6281C11.2784 16.7182 10.8942 18.051 10.6813 19.3607C10.4681 20.6726 10.4245 21.9761 10.457 23.0181C10.4733 23.5394 10.5087 23.9973 10.5521 24.3604C10.5946 24.7165 10.6467 24.9992 10.7021 25.1588L11.1744 24.9949C11.1382 24.8905 11.0907 24.6548 11.0485 24.3011C11.0071 23.9543 10.9727 23.511 10.9568 23.0025C10.925 21.9848 10.9679 20.7143 11.1748 19.4409C11.3821 18.1653 11.7518 16.9015 12.3643 15.8865C12.9743 14.8756 13.8187 14.1209 14.9823 13.8313L14.8616 13.3461Z" fill="black"/>
</g>
</g>
<defs>
<clipPath id="clip0_28_26">
<rect width="32" height="32" fill="white"/>
</clipPath>
</defs>
</svg>
